<svg width="111" height="100" viewBox="0 0 111 100" fill="none" xmlns="http://www.w3.org/2000/svg">
<path d="M60.1 34.8H34.9L27 21.1H68L80 0.299988H12.2C7.89999 0.299988 3.79999 2.59998 1.69999 6.39998C-0.500012 10.2 -0.500012 14.8 1.69999 18.6L44.9 93.5C48.3 99.3 55.8 101.2 61.6 97.8C63.4 96.7 64.9 95.3 65.9 93.5L67.3 91L47.4 56.5L60.1 34.8Z" fill="#4AD295"/>
<path d="M109.3 6.39998C107.1 2.59998 103.1 0.299988 98.8 0.299988H95.8L63.3 56.5L75.2 77.3L109.2 18.5C111.5 14.8 111.5 10.2 109.3 6.39998Z" fill="#4AD295"/>
</svg>
