<svg width="18" height="16" viewBox="0 0 18 16" fill="none" xmlns="http://www.w3.org/2000/svg">
<path d="M8.437 10.3059C9.01716 10.3059 9.57356 10.0754 9.9838 9.66518C10.394 9.25495 10.6245 8.69855 10.6245 8.11838C10.6245 8.05432 10.6216 7.99085 10.6161 7.92815L8.24677 10.2975C8.30946 10.303 8.37274 10.3059 8.437 10.3059ZM15.6776 1.35198L14.8433 0.518384C14.814 0.489104 14.7742 0.472656 14.7328 0.472656C14.6914 0.472656 14.6517 0.489104 14.6224 0.518384L12.4872 2.65413C11.3093 2.05217 9.98531 1.7512 8.51513 1.7512C4.76122 1.7512 1.96044 3.70627 0.112784 7.61643C0.0385169 7.77369 0 7.94545 0 8.11936C0 8.29328 0.0385169 8.46503 0.112784 8.62229C0.851065 10.1774 1.74006 11.4238 2.77978 12.3615L0.713565 14.427C0.684284 14.4563 0.667837 14.496 0.667837 14.5374C0.667837 14.5788 0.684284 14.6186 0.713565 14.6479L1.54735 15.4817C1.57665 15.5109 1.61638 15.5274 1.6578 15.5274C1.69923 15.5274 1.73895 15.5109 1.76825 15.4817L15.6776 1.57307C15.6922 1.55856 15.7037 1.54133 15.7115 1.52236C15.7194 1.50339 15.7235 1.48306 15.7235 1.46253C15.7235 1.44199 15.7194 1.42166 15.7115 1.40269C15.7037 1.38372 15.6922 1.36649 15.6776 1.35198ZM4.9995 8.11838C4.99945 7.52465 5.15318 6.94102 5.44573 6.42435C5.73827 5.90769 6.15966 5.47561 6.66883 5.1702C7.17799 4.86479 7.75759 4.69648 8.35114 4.68164C8.94469 4.66681 9.53197 4.80598 10.0558 5.08557L9.10614 6.03518C8.72317 5.91256 8.31383 5.89779 7.92302 5.9925C7.53221 6.08721 7.17504 6.28773 6.89069 6.57208C6.60635 6.85642 6.40582 7.21359 6.31111 7.6044C6.2164 7.99521 6.23117 8.40456 6.3538 8.78753L5.40419 9.73713C5.13771 9.23924 4.99867 8.68311 4.9995 8.11838Z" fill="black" fill-opacity="0.5"/>
<path d="M16.9175 7.61448C16.23 6.16656 15.4117 4.9859 14.4626 4.07249L11.6474 6.88792C11.8847 7.50826 11.9373 8.18404 11.7988 8.83363C11.6603 9.48322 11.3367 10.0788 10.8671 10.5485C10.3974 11.0181 9.80184 11.3417 9.15225 11.4802C8.50266 11.6186 7.82687 11.566 7.20653 11.3287L4.81864 13.7166C5.92646 14.2293 7.15862 14.4856 8.51513 14.4856C12.269 14.4856 15.0698 12.5305 16.9175 8.62034C16.9918 8.46308 17.0303 8.29132 17.0303 8.11741C17.0303 7.94349 16.9918 7.77173 16.9175 7.61448Z" fill="black" fill-opacity="0.5"/>
</svg>
