<svg width="18" height="14" viewBox="0 0 18 14" fill="none" xmlns="http://www.w3.org/2000/svg">
<path d="M6.2495 7C6.2495 7.58016 6.47997 8.13656 6.89021 8.5468C7.30044 8.95703 7.85684 9.1875 8.437 9.1875C9.01716 9.1875 9.57356 8.95703 9.9838 8.5468C10.394 8.13656 10.6245 7.58016 10.6245 7C10.6245 6.41984 10.394 5.86344 9.9838 5.4532C9.57356 5.04297 9.01716 4.8125 8.437 4.8125C7.85684 4.8125 7.30044 5.04297 6.89021 5.4532C6.47997 5.86344 6.2495 6.41984 6.2495 7ZM16.9175 6.49609C15.0659 2.5957 12.2671 0.632812 8.51513 0.632812C4.76122 0.632812 1.96435 2.5957 0.112784 6.49805C0.0385169 6.65531 0 6.82706 0 7.00098C0 7.17489 0.0385169 7.34665 0.112784 7.50391C1.96435 11.4043 4.76317 13.3672 8.51513 13.3672C12.269 13.3672 15.0659 11.4043 16.9175 7.50195C17.0679 7.18555 17.0679 6.81836 16.9175 6.49609ZM8.437 10.4375C6.53856 10.4375 4.9995 8.89844 4.9995 7C4.9995 5.10156 6.53856 3.5625 8.437 3.5625C10.3354 3.5625 11.8745 5.10156 11.8745 7C11.8745 8.89844 10.3354 10.4375 8.437 10.4375Z" fill="black" fill-opacity="0.5"/>
</svg>
