<svg viewBox="0 0 512 512" xml:space="preserve" xmlns="http://www.w3.org/2000/svg" fill-rule="evenodd" clip-rule="evenodd" stroke-linejoin="round" stroke-miterlimit="2"><path d="M449.446 0C483.971 0 512 28.03 512 62.554v386.892C512 483.97 483.97 512 449.446 512H62.554C28.03 512 0 483.97 0 449.446V62.554C0 28.03 28.029 0 62.554 0h386.892Zm-88.659 240.361h-.008c-6.736-.257-9.718-3.13-10.09-3.508.173-3.184.381-6.509.596-9.93l.065-1.068c1.551-24.565 3.474-55.137-4.305-72.583-23.324-52.294-72.863-56.363-87.492-56.363l-.864.004s-6.024.064-6.398.064c-14.595 0-64.028 4.061-87.339 56.327-7.778 17.436-5.859 47.983-4.31 72.567.24 3.793.475 7.467.663 10.986-.396.41-3.639 3.532-11.07 3.532-5.378 0-11.61-1.64-18.525-4.88-1.189-.556-2.603-.84-4.207-.84-5.856 0-13.096 3.775-14.127 9.193-.603 3.18.677 9.417 16.049 15.495 1.409.556 3.196 1.12 5.08 1.716 7.705 2.444 19.344 6.141 22.911 14.55 1.948 4.589 1.325 10.188-1.857 16.637-.03.062-.058.122-.084.184-.969 2.257-24.286 55.403-76.284 63.966a3.807 3.807 0 0 0-3.185 3.97 6.46 6.46 0 0 0 .521 2.164c2.158 5.055 11.839 12.18 45.665 17.403 2.903.447 3.975 4.705 5.487 11.629.587 2.692 1.197 5.474 2.039 8.345.97 3.315 3.203 3.76 5.264 3.76 1.971 0 4.566-.506 7.574-1.094 4.948-.968 11.727-2.294 20.32-2.294 4.771 0 9.707.417 14.666 1.237 10.162 1.692 18.787 7.79 27.928 14.247 13.236 9.36 26.925 19.037 48.252 19.037.608 0 1.215-.027 1.797-.071h.002c.912.043 1.823.071 2.751.071 21.333 0 35.019-9.677 48.283-19.056 9.123-6.45 17.742-12.536 27.894-14.228 4.961-.82 9.9-1.237 14.672-1.237 8.172 0 14.595 1.032 20.324 2.152 3.23.634 5.778.955 7.572.955h.421c2.583 0 4.119-1.153 4.839-3.617.836-2.839 1.443-5.539 2.043-8.288 1.65-7.554 2.721-11.156 5.485-11.58 33.838-5.229 43.511-12.345 45.657-17.363a6.369 6.369 0 0 0 .532-2.176 3.816 3.816 0 0 0-3.187-3.974c-52.02-8.572-75.319-61.703-76.285-63.958-.025-.066-.057-.126-.087-.188-3.181-6.453-3.805-12.048-1.855-16.635 3.565-8.407 15.201-12.1 22.912-14.548 1.893-.599 3.68-1.167 5.077-1.716 13.489-5.329 16.238-10.744 16.171-14.345-.073-3.826-3.494-7.487-8.718-9.337l-.111-.046c-1.839-.767-4.055-1.189-6.24-1.189-1.43 0-3.532.185-5.424 1.069-6.457 3.024-12.341 4.656-17.46 4.852Z" fill="#f7885d" class="fill-000000"></path></svg>