<svg width="33" height="33" viewBox="0 0 33 33" fill="none" xmlns="http://www.w3.org/2000/svg">
<path fill-rule="evenodd" clip-rule="evenodd" d="M21.75 21.5341C20.1165 20.9389 18.3253 20.625 16.4999 20.625C13.7758 20.625 11.1277 21.3241 8.9665 22.614C7.18084 23.6797 5.80996 25.0994 4.98976 26.715C4.71712 27.252 5.06812 27.8676 5.65773 27.9904L8.33906 28.5492C12.7564 29.4698 17.2907 29.6349 21.75 29.0446V27.75H19.25C17.5931 27.75 16.25 26.4069 16.25 24.75C16.25 23.0931 17.5931 21.75 19.25 21.75L21.75 21.75V21.5341ZM27.75 27.8023C27.7713 27.7857 27.7918 27.7682 27.8114 27.75H27.75V27.8023Z" fill="#F7885D"/>
<path d="M24.75 19.25L24.75 30.25" stroke="#F7885D" stroke-width="2.5" stroke-linecap="round"/>
<path d="M30.25 24.75L19.25 24.75" stroke="#F7885D" stroke-width="2.5" stroke-linecap="round"/>
<circle cx="16.5" cy="11" r="6.875" fill="#F7885D"/>
</svg>
