<svg width="33" height="32" viewBox="0 0 33 32" fill="none" xmlns="http://www.w3.org/2000/svg">
<path d="M16.1959 10.6644C13.2579 10.6644 10.8603 13.062 10.8603 16C10.8603 18.938 13.2579 21.3356 16.1959 21.3356C19.1339 21.3356 21.5315 18.938 21.5315 16C21.5315 13.062 19.1339 10.6644 16.1959 10.6644ZM32.1987 16C32.1987 13.7905 32.2187 11.601 32.0946 9.39554C31.9705 6.83381 31.3862 4.56027 29.5129 2.687C27.6356 0.809737 25.3661 0.229345 22.8044 0.105261C20.5949 -0.018823 18.4054 0.00119058 16.1999 0.00119058C13.9904 0.00119058 11.8009 -0.018823 9.59543 0.105261C7.0337 0.229345 4.76016 0.813739 2.8869 2.687C1.00963 4.56427 0.429235 6.83381 0.305151 9.39554C0.181067 11.605 0.201081 13.7945 0.201081 16C0.201081 18.2055 0.181067 20.399 0.305151 22.6045C0.429235 25.1662 1.01363 27.4397 2.8869 29.313C4.76416 31.1903 7.0337 31.7707 9.59543 31.8947C11.8049 32.0188 13.9944 31.9988 16.1999 31.9988C18.4094 31.9988 20.5989 32.0188 22.8044 31.8947C25.3661 31.7707 27.6396 31.1863 29.5129 29.313C31.3902 27.4357 31.9705 25.1662 32.0946 22.6045C32.2227 20.399 32.1987 18.2095 32.1987 16ZM16.1959 24.2095C11.6528 24.2095 7.98634 20.5431 7.98634 16C7.98634 11.4569 11.6528 7.79045 16.1959 7.79045C20.739 7.79045 24.4054 11.4569 24.4054 16C24.4054 20.5431 20.739 24.2095 16.1959 24.2095ZM24.7417 9.37152C23.6809 9.37152 22.8244 8.51494 22.8244 7.45423C22.8244 6.39351 23.6809 5.53693 24.7417 5.53693C25.8024 5.53693 26.659 6.39351 26.659 7.45423C26.6593 7.7061 26.6099 7.95556 26.5137 8.18832C26.4174 8.42108 26.2762 8.63256 26.0981 8.81066C25.92 8.98876 25.7085 9.12998 25.4758 9.22622C25.243 9.32246 24.9935 9.37184 24.7417 9.37152Z" fill="#F7885D"/>
</svg>
