<svg width="33" height="32" viewBox="0 0 33 32" fill="none" xmlns="http://www.w3.org/2000/svg">
<path d="M16.4004 0C7.56372 0 0.400391 7.16333 0.400391 16C0.400391 24.8367 7.56372 32 16.4004 32C25.2371 32 32.4004 24.8367 32.4004 16C32.4004 7.16333 25.2371 0 16.4004 0ZM12.4837 22.6317H9.24372V12.205H12.4837V22.6317ZM10.8437 10.925C9.82039 10.925 9.15872 10.2 9.15872 9.30333C9.15872 8.38833 9.84039 7.685 10.8854 7.685C11.9304 7.685 12.5704 8.38833 12.5904 9.30333C12.5904 10.2 11.9304 10.925 10.8437 10.925ZM24.3171 22.6317H21.0771V16.8533C21.0771 15.5083 20.6071 14.595 19.4354 14.595C18.5404 14.595 18.0087 15.2133 17.7737 15.8083C17.6871 16.02 17.6654 16.32 17.6654 16.6183V22.63H14.4237V15.53C14.4237 14.2283 14.3821 13.14 14.3387 12.2033H17.1537L17.3021 13.6517H17.3671C17.7937 12.9717 18.8387 11.9683 20.5871 11.9683C22.7187 11.9683 24.3171 13.3967 24.3171 16.4667V22.6317Z" fill="#F7885D"/>
</svg>
