<svg width="33" height="32" viewBox="0 0 33 32" fill="none" xmlns="http://www.w3.org/2000/svg">
<path d="M27.2669 21.25C27.2669 20.9444 27.1141 20.7569 26.8086 20.6875C25.878 20.4931 25.0586 20.0903 24.3502 19.4792C23.6419 18.8681 23.0863 18.1111 22.6836 17.2083C22.5863 17.0139 22.5377 16.8403 22.5377 16.6875C22.5377 16.4792 22.6731 16.2986 22.944 16.1458C23.2148 15.9931 23.5099 15.875 23.8294 15.7917C24.1488 15.7083 24.444 15.566 24.7148 15.3646C24.9856 15.1632 25.1211 14.9097 25.1211 14.6042C25.1211 14.3403 24.9926 14.1215 24.7356 13.9479C24.4787 13.7743 24.2113 13.6875 23.9336 13.6875C23.7808 13.6875 23.5655 13.7431 23.2877 13.8542C23.0099 13.9653 22.7877 14.0208 22.6211 14.0208C22.5655 14.0208 22.4822 14.0069 22.3711 13.9792C22.4405 13.1042 22.4752 12.3056 22.4752 11.5833C22.4752 10.5 22.3572 9.70833 22.1211 9.20833C21.6211 8.125 20.9092 7.28125 19.9856 6.67708C19.062 6.07292 18.003 5.77083 16.8086 5.77083C14.0586 5.77083 12.1488 6.91667 11.0794 9.20833C10.8294 9.73611 10.7044 10.5347 10.7044 11.6042C10.7044 12.1319 10.7461 12.9236 10.8294 13.9792C10.6905 14.0069 10.5863 14.0208 10.5169 14.0208C10.3641 14.0208 10.1454 13.9653 9.86064 13.8542C9.57591 13.7431 9.36411 13.6875 9.22522 13.6875C8.94744 13.6875 8.68703 13.7743 8.44397 13.9479C8.20091 14.1215 8.07939 14.3472 8.07939 14.625C8.07939 14.9167 8.2148 15.1632 8.48564 15.3646C8.75647 15.566 9.05161 15.7083 9.37105 15.7917C9.6905 15.875 9.98564 15.9931 10.2565 16.1458C10.5273 16.2986 10.6627 16.4792 10.6627 16.6875C10.6627 16.8403 10.6141 17.0139 10.5169 17.2083C9.628 19.125 8.253 20.2847 6.39189 20.6875C6.08633 20.7569 5.93355 20.9444 5.93355 21.25C5.93355 21.9028 6.89189 22.3819 8.80855 22.6875C8.83633 22.7569 8.878 22.9375 8.93355 23.2292C8.98911 23.5208 9.0655 23.7326 9.16272 23.8646C9.25994 23.9965 9.41966 24.0625 9.64189 24.0625C9.82244 24.0625 10.0898 24.0278 10.444 23.9583C10.7981 23.8889 11.0655 23.8542 11.2461 23.8542C11.7322 23.8542 12.2009 23.9583 12.6523 24.1667C13.1037 24.375 13.4822 24.6007 13.7877 24.8438C14.0933 25.0868 14.4926 25.3125 14.9856 25.5208C15.4787 25.7292 16.0099 25.8333 16.5794 25.8333C17.1766 25.8333 17.7252 25.7292 18.2252 25.5208C18.7252 25.3125 19.1245 25.0868 19.4231 24.8438C19.7217 24.6007 20.0967 24.375 20.5481 24.1667C20.9995 23.9583 21.4683 23.8542 21.9544 23.8542C22.1349 23.8542 22.4058 23.8854 22.7669 23.9479C23.128 24.0104 23.3988 24.0417 23.5794 24.0417C23.7877 24.0417 23.944 23.9757 24.0481 23.8438C24.1523 23.7118 24.2322 23.4965 24.2877 23.1979C24.3433 22.8993 24.378 22.7292 24.3919 22.6875C26.3086 22.3819 27.2669 21.9028 27.2669 21.25ZM32.6002 6V26C32.6002 27.6528 32.0134 29.066 30.8398 30.2396C29.6662 31.4132 28.253 32 26.6002 32H6.60022C4.94744 32 3.53425 31.4132 2.36064 30.2396C1.18703 29.066 0.60022 27.6528 0.60022 26V6C0.60022 4.34722 1.18703 2.93403 2.36064 1.76042C3.53425 0.586806 4.94744 0 6.60022 0H26.6002C28.253 0 29.6662 0.586806 30.8398 1.76042C32.0134 2.93403 32.6002 4.34722 32.6002 6Z" fill="#F7885D"/>
</svg>
