<svg width="33" height="32" viewBox="0 0 33 32" fill="none" xmlns="http://www.w3.org/2000/svg">
<path d="M16.8 0C7.96338 0 0.800049 7.16333 0.800049 16C0.800049 24.8367 7.96338 32 16.8 32C25.6367 32 32.8 24.8367 32.8 16C32.8 7.16333 25.6367 0 16.8 0ZM23.3084 13.1067C23.315 13.2433 23.3167 13.38 23.3167 13.5133C23.3167 17.68 20.1484 22.4817 14.3517 22.4817C12.6389 22.4845 10.9617 21.9926 9.52172 21.065C9.76672 21.095 10.0184 21.1067 10.2734 21.1067C11.75 21.1067 13.1084 20.605 14.1867 19.7583C13.5296 19.7454 12.8928 19.5278 12.3652 19.1359C11.8376 18.7439 11.4455 18.1971 11.2434 17.5717C11.7153 17.6614 12.2015 17.6426 12.665 17.5167C11.9518 17.3724 11.3104 16.986 10.8496 16.4228C10.3887 15.8596 10.1369 15.1544 10.1367 14.4267V14.3883C10.5617 14.6233 11.0484 14.7667 11.565 14.7833C10.8964 14.3382 10.423 13.6545 10.2418 12.8719C10.0606 12.0893 10.1851 11.2671 10.59 10.5733C11.3816 11.5467 12.3688 12.3429 13.4877 12.9105C14.6065 13.4781 15.8321 13.8044 17.085 13.8683C16.9258 13.1922 16.9943 12.4823 17.2801 11.8492C17.5658 11.216 18.0528 10.695 18.6652 10.3671C19.2776 10.0392 19.9812 9.92287 20.6665 10.0361C21.3519 10.1494 21.9807 10.4859 22.455 10.9933C23.1603 10.8538 23.8367 10.5951 24.455 10.2283C24.22 10.9586 23.7278 11.5786 23.07 11.9733C23.6948 11.8981 24.3048 11.7301 24.88 11.475C24.4575 12.1082 23.9253 12.6607 23.3084 13.1067Z" fill="#F7885D"/>
</svg>
